name D:\school\WTK\thesis\model\3dpredictsim\Results\batch_windlass\Pog_s1_tmt_aCst_d05_k800_WL10_ig24.mot
datacolumns 128
datarows 4
range 1.04463947 1.07597866
endheader
time	pelvis_tilt	pelvis_list	pelvis_rotation	pelvis_tx	pelvis_ty	pelvis_tz	hip_flexion_l	hip_adduction_l	hip_rotation_l	hip_flexion_r	hip_adduction_r	hip_rotation_r	knee_angle_l	knee_angle_r	ankle_angle_l	ankle_angle_r	subtalar_angle_l	subtalar_angle_r	tmt_angle_l	tmt_angle_r	mtp_angle_l	mtp_angle_r	lumbar_extension	lumbar_bending	lumbar_rotation	arm_flex_l	arm_add_l	arm_rot_l	arm_flex_r	arm_add_r	arm_rot_r	elbow_flex_l	elbow_flex_r	pro_sup_l	pro_sup_r	glut_med1_l/activation	glut_med2_l/activation	glut_med3_l/activation	glut_min1_l/activation	glut_min2_l/activation	glut_min3_l/activation	semimem_l/activation	semiten_l/activation	bifemlh_l/activation	bifemsh_l/activation	sar_l/activation	add_long_l/activation	add_brev_l/activation	add_mag1_l/activation	add_mag2_l/activation	add_mag3_l/activation	tfl_l/activation	pect_l/activation	grac_l/activation	glut_max1_l/activation	glut_max2_l/activation	glut_max3_l/activation	iliacus_l/activation	psoas_l/activation	quad_fem_l/activation	gem_l/activation	peri_l/activation	rect_fem_l/activation	vas_med_l/activation	vas_int_l/activation	vas_lat_l/activation	med_gas_l/activation	lat_gas_l/activation	soleus_l/activation	tib_post_l/activation	flex_dig_l/activation	flex_hal_l/activation	tib_ant_l/activation	per_brev_l/activation	per_long_l/activation	per_tert_l/activation	ext_dig_l/activation	ext_hal_l/activation	ercspn_l/activation	intobl_l/activation	extobl_l/activation	glut_med1_r/activation	glut_med2_r/activation	glut_med3_r/activation	glut_min1_r/activation	glut_min2_r/activation	glut_min3_r/activation	semimem_r/activation	semiten_r/activation	bifemlh_r/activation	bifemsh_r/activation	sar_r/activation	add_long_r/activation	add_brev_r/activation	add_mag1_r/activation	add_mag2_r/activation	add_mag3_r/activation	tfl_r/activation	pect_r/activation	grac_r/activation	glut_max1_r/activation	glut_max2_r/activation	glut_max3_r/activation	iliacus_r/activation	psoas_r/activation	quad_fem_r/activation	gem_r/activation	peri_r/activation	rect_fem_r/activation	vas_med_r/activation	vas_int_r/activation	vas_lat_r/activation	med_gas_r/activation	lat_gas_r/activation	soleus_r/activation	tib_post_r/activation	flex_dig_r/activation	flex_hal_r/activation	tib_ant_r/activation	per_brev_r/activation	per_long_r/activation	per_tert_r/activation	ext_dig_r/activation	ext_hal_r/activation	ercspn_r/activation	intobl_r/activation	extobl_r/activation	
          1.04463947	         -2.92555096	         -1.35353504	          5.72722816	          1.30579934	          0.85776335	         -0.00193810	        -18.28264606	         -1.25123459	          8.76364854	         31.71809897	          2.74790613	         -0.58046587	         -8.46030725	        -19.86416359	         -1.45923114	         -2.93922439	         10.31687372	         -5.10147548	         -1.12618021	          0.02248063	         25.35032337	          0.18877622	         -0.92238193	         -0.50092354	         -1.60034966	          5.02756725	        -13.46417601	         15.64002355	         -8.02090399	        -13.67929617	          8.94232086	         31.87504035	         17.01888483	         86.51662706	         86.51662706	          0.32669177	          0.09331685	          0.05796880	          0.35666763	          0.21022571	          0.09501677	          0.05001040	          0.05000073	          0.05000059	          0.07964184	          0.09788847	          0.06227652	          0.05000079	          0.05000115	          0.05000323	          0.05000571	          0.27978870	          0.05000393	          0.05000149	          0.05001125	          0.05000714	          0.05000461	          0.33194238	          0.51796413	          0.05000056	          0.05000313	          0.05000077	          0.19902511	          0.05004393	          0.05884010	          0.10124464	          0.31761673	          0.40324600	          0.27347175	          0.21494749	          0.21162969	          0.30193554	          0.05000003	          0.07547407	          0.16098719	          0.05000023	          0.05000006	          0.05000022	          0.05000003	          0.05000029	          0.05000007	          0.05001543	          0.05000902	          0.05870473	          0.05000113	          0.05000145	          0.05000574	          0.05218064	          0.05870937	          0.06664965	          0.05723588	          0.05000091	          0.09663094	          0.15505531	          0.16455316	          0.15656559	          0.12392033	          0.05003622	          0.05001293	          0.06892693	          0.05870543	          0.10895371	          0.10786467	          0.06122203	          0.06364649	          0.16779926	          0.05000144	          0.05000054	          0.05000079	          0.09979045	          0.10996016	          0.08597510	          0.08880621	          0.06895871	          0.05000018	          0.05000026	          0.05870556	          0.05870522	          0.33687045	          0.32031881	          0.17572136	          0.16473745	          0.60741851	          0.12209721	          0.05688500	          0.12656036	          0.12828621	
          1.05508587	         -2.91651195	         -1.47432069	          6.02577960	          1.32156216	          0.85666699	         -0.00176917	        -18.06256635	         -1.57589396	          8.50967341	         31.18659061	          3.15733404	         -0.33420055	        -10.41645001	        -19.52523951	         -2.25353537	         -3.38368310	         11.39650151	         -5.86847692	         -1.54048074	          0.02153351	         26.34711992	          0.29044847	         -0.73215012	         -0.25829879	         -1.66159988	          4.83789343	        -13.48908975	         15.99443802	         -8.99164358	        -13.67974673	          8.72349455	         32.80631895	         16.93339957	         86.51662706	         86.51662706	          0.31418763	          0.07947907	          0.05000010	          0.30377833	          0.17905174	          0.08092693	          0.05000303	          0.05000040	          0.05000034	          0.06783190	          0.08337316	          0.11083992	          0.13463243	          0.05000447	          0.05000471	          0.05000092	          0.23829961	          0.11338607	          0.05000173	          0.05000221	          0.05000137	          0.05000111	          0.28271927	          0.47257853	          0.05000021	          0.05000077	          0.05000057	          0.16951206	          0.13332658	          0.05011852	          0.09335409	          0.27051781	          0.34344926	          0.23291903	          0.18307336	          0.18024790	          0.25716220	          0.05000004	          0.06428226	          0.13711478	          0.05000029	          0.05000008	          0.05000024	          0.05000004	          0.05348005	          0.05000059	          0.05000490	          0.05000194	          0.05000023	          0.05870554	          0.05870518	          0.05000264	          0.05000195	          0.05000360	          0.05870541	          0.05000030	          0.05000254	          0.10280334	          0.23643503	          0.14015640	          0.15008004	          0.13871860	          0.05000032	          0.08090966	          0.05870645	          0.05000056	          0.14665648	          0.14754329	          0.05871198	          0.05420887	          0.20589727	          0.08092487	          0.07279843	          0.05559832	          0.18778599	          0.18638426	          0.15687425	          0.07563729	          0.05873301	          0.05609759	          0.05000002	          0.05000040	          0.05000036	          0.46924085	          0.27281930	          0.14966394	          0.47388825	          0.68770932	          0.27578629	          0.05000010	          0.10779294	          0.10926285	
          1.06553226	         -2.90286437	         -1.59795146	          6.29947747	          1.33761009	          0.85545852	         -0.00159826	        -17.74717117	         -1.88932950	          8.24653614	         30.51862062	          3.56798760	         -0.01932503	        -12.55204840	        -19.75749390	         -3.13567844	         -3.77606894	         12.41956720	         -6.67517598	         -1.95889138	         -0.01508371	         27.10453575	          0.43430370	         -0.51986770	         -0.00473248	         -1.71546345	          4.57368197	        -13.52569424	         16.29576581	         -9.97405155	        -13.68146023	          8.54253218	         33.72964318	         16.85549015	         86.51662706	         86.51662706	          0.26759734	          0.06769327	          0.05000267	          0.25873174	          0.15250051	          0.06892646	          0.05552877	          0.05000084	          0.05000164	          0.05777327	          0.07101026	          0.20806943	          0.32688779	          0.06890839	          0.05870730	          0.12297731	          0.20296276	          0.09716231	          0.05001158	          0.05002578	          0.05002089	          0.05014132	          0.24079534	          0.42868034	          0.05870499	          0.05868822	          0.05000047	          0.14437542	          0.11355746	          0.15378298	          0.13340890	          0.23040312	          0.29251968	          0.19837980	          0.15592573	          0.15351942	          0.21902813	          0.08345299	          0.05475003	          0.11678245	          0.05000022	          0.11289356	          0.05000163	          0.05523070	          0.05870550	          0.06892594	          0.05000019	          0.05000034	          0.11476225	          0.05000034	          0.05000030	          0.05000042	          0.05000011	          0.05000018	          0.05000023	          0.05000014	          0.05000263	          0.08755901	          0.20137476	          0.29752626	          0.24149019	          0.16466240	          0.05000164	          0.06891665	          0.05000292	          0.11392741	          0.15323260	          0.12566481	          0.05000710	          0.05237841	          0.27603239	          0.06892514	          0.06200340	          0.05870553	          0.28458704	          0.27482765	          0.23430491	          0.06750811	          0.05002369	          0.05000006	          0.06963656	          0.05870624	          0.05867103	          0.47786300	          0.23236342	          0.12747058	          0.40361664	          0.59614916	          0.23489056	          0.05000003	          0.09180850	          0.09306043	
          1.07597866	         -2.88657693	         -1.72361678	          6.54281831	          1.35382612	          0.85417194	         -0.00143622	        -17.33897237	         -2.18520975	          7.98037629	         29.63408535	          3.95101041	          0.32662360	        -14.84530988	        -20.15342669	         -4.07303236	         -3.73647489	         13.35288313	         -7.52219193	         -2.34959351	         -0.27323428	         27.40912263	          0.44272110	         -0.29547694	          0.25686422	         -1.75896403	          4.25008023	        -13.56891978	         16.53869296	        -10.93495007	        -13.68807972	          8.43632886	         34.63931623	         16.75547022	         86.51662706	         86.51662706	          0.31409849	          0.05765517	          0.05000004	          0.28517235	          0.12988654	          0.05870552	          0.07609125	          0.05000033	          0.05000024	          0.05000025	          0.06048077	          0.19778312	          0.27841505	          0.05869045	          0.05000342	          0.10474159	          0.22451183	          0.08277113	          0.05000049	          0.05000137	          0.05000089	          0.05000062	          0.20508840	          0.40670746	          0.05000009	          0.05000036	          0.05000011	          0.12296625	          0.09671831	          0.13097883	          0.11362599	          0.19623698	          0.24914238	          0.16896235	          0.13280378	          0.13075445	          0.18654892	          0.16057318	          0.13307348	          0.13072622	          0.36405134	          0.22123413	          0.14379439	          0.08638229	          0.05000016	          0.05870506	          0.28176818	          0.32030168	          0.42039168	          0.27269356	          0.11022411	          0.26143388	          0.08188672	          0.11534467	          0.08840527	          0.06892656	          0.05000107	          0.07457512	          0.17151334	          0.25340694	          0.20568054	          0.15418491	          0.05000045	          0.05870529	          0.11271449	          0.24891900	          0.21442980	          0.13324498	          0.05000068	          0.05000043	          0.23510039	          0.05870522	          0.19824304	          0.05000021	          0.24238733	          0.26244922	          0.21994700	          0.05749749	          0.05000066	          0.05558850	          0.09190913	          0.05000109	          0.05000053	          0.55359837	          0.19790661	          0.10856817	          0.37524968	          0.63188753	          0.32845398	          0.05000015	          0.08092727	          0.07926064	
